<svg height="32" width="32" xmlns="http://www.w3.org/2000/svg"><path d="M26.5 3h-5.958v1H26.5a.5.5 0 01.5.5v25a.5.5 0 01-.5.5h-21a.5.5 0 01-.5-.5v-25a.5.5 0 01.5-.5h6V3h-6C4.673 3 4 3.673 4 4.5v25c0 .827.673 1.5 1.5 1.5h21c.827 0 1.5-.673 1.5-1.5v-25c0-.827-.673-1.5-1.5-1.5z" fill="#263238"/><path d="M25.5 22a.5.5 0 01-.5-.5V6h-2.5a.5.5 0 010-1h3a.5.5 0 01.5.5v16a.5.5 0 01-.5.5zm-5 7h-14a.5.5 0 01-.5-.5v-23a.5.5 0 01.5-.5h3a.5.5 0 010 1H7v22h13.5a.5.5 0 010 1z" fill="#263238"/><path d="M20.5 29a.5.5 0 01-.5-.5v-5a.5.5 0 01.5-.5h5a.5.5 0 01.354.854l-5 5A.504.504 0 0120.5 29zm.5-5v3.293L24.293 24H21zM9.653 18.016h-.011a.497.497 0 01-.368-.174l-1.153-1.346a.5.5 0 11.759-.65l.791.922 1.59-1.693a.5.5 0 11.729.686l-1.972 2.099a.507.507 0 01-.365.156zm0-5h-.011a.497.497 0 01-.368-.174l-1.153-1.346a.5.5 0 11.759-.65l.791.922 1.59-1.693a.5.5 0 11.729.686l-1.972 2.099a.507.507 0 01-.365.156zM17.5 23h-4a.5.5 0 010-1h4a.5.5 0 010 1zm5-2h-9a.5.5 0 010-1h9a.5.5 0 010 1zm0-5h-3a.5.5 0 010-1h3a.5.5 0 010 1zm-2 2h-7a.5.5 0 010-1h7a.5.5 0 010 1zm-3-2h-4a.5.5 0 010-1h4a.5.5 0 010 1zm5-5h-9a.5.5 0 010-1h9a.5.5 0 010 1zm-4 2h-5a.5.5 0 010-1h5a.5.5 0 010 1zm-8 10h-2a.5.5 0 01-.5-.5v-2a.5.5 0 01.5-.5h2a.5.5 0 01.5.5v2a.5.5 0 01-.5.5zM9 22h1v-1H9v1zM20.5 7h-9a.5.5 0 01-.5-.5v-3c0-.827.673-1.5 1.5-1.5a.5.5 0 010 1 .5.5 0 00-.5.5V6h8V3.5a.5.5 0 00-.5-.5.5.5 0 010-1c.827 0 1.5.673 1.5 1.5v3a.5.5 0 01-.5.5z" fill="#263238"/><path d="M17.5 3a.5.5 0 01-.5-.5.5.5 0 00-.5-.5h-1a.488.488 0 00-.296.097A.494.494 0 0015 2.5a.5.5 0 01-1 0c0-.475.228-.926.609-1.207A1.49 1.49 0 0115.5 1h1c.827 0 1.5.673 1.5 1.5a.5.5 0 01-.5.5z" fill="#263238"/></svg>